<?xml version="1.0" encoding="utf-8"?>
<svg viewBox="0 0 500 232" xmlns="http://www.w3.org/2000/svg">
  <path d="M 304.565 10.134 C 297.711 3.378 288.831 0 277.909 0 C 267.286 0 258.545 3.449 251.677 10.338 C 244.829 17.24 241.404 26.043 241.404 36.731 L 241.404 132.145 C 241.404 139.47 238.953 145.595 234.055 150.516 C 229.164 155.448 223.081 157.909 215.803 157.909 C 208.53 157.909 202.447 155.448 197.546 150.516 C 192.653 145.595 190.201 139.47 190.201 132.145 L 190.201 36.731 C 190.201 26.043 188.27 17.653 180.782 10.1 C 178.567 7.866 171.004 0.077 157.523 0.077 C 144.279 0.077 135.112 9.122 134.379 9.862 C 126.997 17.308 124.647 26.043 124.647 36.731 L 124.647 132.145 C 124.647 139.47 122.196 145.595 117.301 150.516 C 112.397 155.448 106.32 157.909 99.041 157.909 C 91.767 157.909 85.685 155.448 80.796 150.516 C 75.894 145.595 73.443 139.47 73.443 132.145 L 73.443 36.731 C 73.443 26.043 70.018 17.24 63.168 10.338 C 56.304 3.449 47.56 0 36.938 0 C 26.015 0 17.136 3.378 10.281 10.134 C 3.422 16.894 0 25.774 0 36.759 L 0 132.269 C 0 160.727 9.448 184.456 28.328 203.473 C 47.218 222.489 70.783 232 99.041 232 C 120.711 232 140.161 225.589 157.425 212.8 C 174.686 225.589 194.139 232 215.803 232 C 244.065 232 267.631 222.489 286.518 203.473 C 305.399 184.456 314.846 160.727 314.846 132.269 L 314.846 36.759 C 314.846 25.774 311.428 16.894 304.565 10.134" style="fill-opacity: 1; fill-rule: nonzero; stroke: none; fill: rgb(233, 45, 135);" id="path-1" class="w3logo-w"/>
  <path d="M 338.749 7.574 C 333.84 12.627 331.383 19.168 331.383 27.215 C 331.383 35.045 333.894 41.487 338.895 46.546 C 343.914 51.593 350.313 54.115 358.082 54.115 L 427.427 54.115 C 432.751 54.115 437.203 55.921 440.78 59.533 C 444.363 63.134 446.153 67.619 446.153 72.98 C 446.153 78.339 444.363 82.821 440.78 86.433 C 437.203 90.043 432.751 91.846 427.427 91.846 L 358.082 91.846 C 350.311 91.846 344.9 92.614 337.934 99.58 C 333.861 103.653 331.513 110.159 331.513 115.893 C 331.513 120.739 332.892 127.163 338.212 132.483 C 343.813 138.084 350.484 140.156 358.082 140.156 L 427.427 140.156 C 432.751 140.156 437.203 141.959 440.78 145.565 C 444.363 149.176 446.153 153.661 446.153 159.019 C 446.153 164.381 444.363 168.866 440.78 172.469 C 437.203 176.079 432.751 177.883 427.427 177.883 L 358.082 177.883 C 350.313 177.883 343.914 180.41 338.895 185.455 C 333.894 190.514 331.383 196.957 331.383 204.786 C 331.383 212.834 333.84 219.377 338.749 224.427 C 343.662 229.48 350.115 232 358.101 232 L 427.516 232 C 448.2 232 465.446 225.042 479.268 211.129 C 493.088 197.212 500 179.845 500 159.019 C 500 143.051 495.342 128.72 486.047 116.002 C 495.342 103.277 500 88.947 500 72.98 C 500 52.157 493.088 34.79 479.268 20.875 C 465.446 6.958 448.2 0 427.516 0 L 358.101 0 C 350.115 0 343.662 2.521 338.749 7.574" style="fill-opacity: 1; fill-rule: nonzero; stroke: none; fill: rgb(255, 255, 255);" id="path14" class="w3logo-3"/>
</svg>