<?xml version="1.0" encoding="utf-8"?>
<svg viewBox="0 0 500 232" xmlns="http://www.w3.org/2000/svg">
  <path d="M 302.597 13.952 C 295.99 7.44 287.431 4.184 276.902 4.184 C 266.663 4.184 258.237 7.508 251.617 14.149 C 245.015 20.802 241.714 29.287 241.714 39.59 L 241.714 131.563 C 241.714 138.624 239.351 144.528 234.63 149.271 C 229.915 154.025 224.052 156.398 217.036 156.398 C 210.026 156.398 204.162 154.025 199.438 149.271 C 194.721 144.528 192.358 138.624 192.358 131.563 L 192.358 39.59 C 192.358 29.287 190.496 21.2 183.278 13.919 C 181.143 11.766 173.853 4.258 160.858 4.258 C 148.092 4.258 139.255 12.977 138.549 13.69 C 131.433 20.867 129.168 29.287 129.168 39.59 L 129.168 131.563 C 129.168 138.624 126.805 144.528 122.087 149.271 C 117.36 154.025 111.502 156.398 104.485 156.398 C 97.474 156.398 91.611 154.025 86.898 149.271 C 82.173 144.528 79.811 138.624 79.811 131.563 L 79.811 39.59 C 79.811 29.287 76.509 20.802 69.906 14.149 C 63.29 7.508 54.861 4.184 44.622 4.184 C 34.093 4.184 25.534 7.44 18.926 13.952 C 12.315 20.468 9.016 29.028 9.016 39.617 L 9.016 131.682 C 9.016 159.114 18.124 181.987 36.323 200.318 C 54.531 218.648 77.246 227.816 104.485 227.816 C 125.374 227.816 144.122 221.637 160.764 209.309 C 177.402 221.637 196.154 227.816 217.036 227.816 C 244.279 227.816 266.995 218.648 285.201 200.318 C 303.401 181.987 312.507 159.114 312.507 131.682 L 312.507 39.617 C 312.507 29.028 309.213 20.468 302.597 13.952" style="fill-opacity: 1; fill-rule: nonzero; fill: rgb(233, 45, 135); stroke-width: 4px; stroke: rgb(0, 0, 0); stroke-linecap: round; stroke-linejoin: round; stroke-dashoffset: 6px; stroke-dasharray: 0, 450;" id="path-1" class="w3logo-w"/>
  <path d="M 335.548 11.484 C 330.816 16.355 328.448 22.66 328.448 30.417 C 328.448 37.965 330.868 44.174 335.689 49.051 C 340.527 53.916 346.695 56.347 354.184 56.347 L 421.028 56.347 C 426.16 56.347 430.452 58.088 433.9 61.569 C 437.353 65.041 439.079 69.364 439.079 74.532 C 439.079 79.697 437.353 84.018 433.9 87.499 C 430.452 90.979 426.16 92.717 421.028 92.717 L 354.184 92.717 C 346.693 92.717 341.477 93.457 334.763 100.172 C 330.837 104.098 328.573 110.37 328.573 115.897 C 328.573 120.568 329.903 126.76 335.031 131.889 C 340.43 137.288 346.86 139.285 354.184 139.285 L 421.028 139.285 C 426.16 139.285 430.452 141.023 433.9 144.499 C 437.353 147.98 439.079 152.303 439.079 157.468 C 439.079 162.636 437.353 166.959 433.9 170.432 C 430.452 173.912 426.16 175.651 421.028 175.651 L 354.184 175.651 C 346.695 175.651 340.527 178.087 335.689 182.95 C 330.868 187.827 328.448 194.037 328.448 201.584 C 328.448 209.342 330.816 215.649 335.548 220.517 C 340.284 225.387 346.504 227.816 354.202 227.816 L 421.114 227.816 C 441.052 227.816 457.676 221.109 470.999 207.698 C 484.321 194.283 490.984 177.542 490.984 157.468 C 490.984 142.075 486.494 128.261 477.534 116.002 C 486.494 103.736 490.984 89.923 490.984 74.532 C 490.984 54.459 484.321 37.719 470.999 24.306 C 457.676 10.891 441.052 4.184 421.114 4.184 L 354.202 4.184 C 346.504 4.184 340.284 6.614 335.548 11.484" style="fill: rgb(17, 11, 9); fill-opacity: 1; fill-rule: nonzero; stroke: rgb(233, 45, 135); stroke-width: 4px; stroke-linecap: round; stroke-linejoin: round; stroke-dasharray: 0, 450;" id="path14" class="w3logo-3"/>
</svg>